<?xml version="1.0" encoding="UTF-8" standalone="no"?>
<svg
   xmlns:dc="http://purl.org/dc/elements/1.1/"
   xmlns:cc="http://creativecommons.org/ns#"
   xmlns:rdf="http://www.w3.org/1999/02/22-rdf-syntax-ns#"
   xmlns:svg="http://www.w3.org/2000/svg"
   xmlns="http://www.w3.org/2000/svg"
   xmlns:sodipodi="http://sodipodi.sourceforge.net/DTD/sodipodi-0.dtd"
   xmlns:inkscape="http://www.inkscape.org/namespaces/inkscape"
   inkscape:version="1.0 (4035a4fb49, 2020-05-01)"
   sodipodi:docname="about.svg"
   id="svg20"
   version="1.1"
   width="24"
   viewBox="0 0 24 24"
   height="24"
   enable-background="new 0 0 24 24">
  <metadata
     id="metadata26">
    <rdf:RDF>
      <cc:Work
         rdf:about="">
        <dc:format>image/svg+xml</dc:format>
        <dc:type
           rdf:resource="http://purl.org/dc/dcmitype/StillImage" />
        <dc:title></dc:title>
      </cc:Work>
    </rdf:RDF>
  </metadata>
  <defs
     id="defs24" />
  <sodipodi:namedview
     inkscape:current-layer="svg20"
     inkscape:window-maximized="1"
     inkscape:window-y="-8"
     inkscape:window-x="-8"
     inkscape:cy="12"
     inkscape:cx="12"
     inkscape:zoom="35.416667"
     inkscape:pagecheckerboard="false"
     showgrid="false"
     id="namedview22"
     inkscape:window-height="1017"
     inkscape:window-width="1920"
     inkscape:pageshadow="2"
     inkscape:pageopacity="0"
     guidetolerance="10"
     gridtolerance="10"
     objecttolerance="10"
     borderopacity="1"
     bordercolor="#666666"
     pagecolor="#323232" />
  <g
     id="g4">
    <rect
       id="rect2"
       width="24"
       height="24"
       fill="none" />
  </g>
  <g
     style="fill:#ffffff"
     id="g18">
    <g
       style="fill:#ffffff"
       id="g6" />
    <g
       style="fill:#ffffff"
       id="g16">
      <path
         style="fill:#ffffff"
         id="path8"
         d="M16.67,13.13C18.04,14.06,19,15.32,19,17v3h4v-3C23,14.82,19.43,13.53,16.67,13.13z" />
      <path
         style="fill:#ffffff"
         id="path10"
         d="M15,12c2.21,0,4-1.79,4-4c0-2.21-1.79-4-4-4c-0.47,0-0.91,0.1-1.33,0.24C14.5,5.27,15,6.58,15,8s-0.5,2.73-1.33,3.76 C14.09,11.9,14.53,12,15,12z" />
      <path
         style="fill:#ffffff"
         id="path12"
         d="M9,12c2.21,0,4-1.79,4-4c0-2.21-1.79-4-4-4S5,5.79,5,8C5,10.21,6.79,12,9,12z M9,6c1.1,0,2,0.9,2,2c0,1.1-0.9,2-2,2 S7,9.1,7,8C7,6.9,7.9,6,9,6z" />
      <path
         style="fill:#ffffff"
         id="path14"
         d="M9,13c-2.67,0-8,1.34-8,4v3h16v-3C17,14.34,11.67,13,9,13z M15,18H3l0-0.99C3.2,16.29,6.3,15,9,15s5.8,1.29,6,2V18z" />
    </g>
  </g>
</svg>
