<?xml version="1.0" encoding="UTF-8" standalone="no"?>
<svg
   xmlns:dc="http://purl.org/dc/elements/1.1/"
   xmlns:cc="http://creativecommons.org/ns#"
   xmlns:rdf="http://www.w3.org/1999/02/22-rdf-syntax-ns#"
   xmlns:svg="http://www.w3.org/2000/svg"
   xmlns="http://www.w3.org/2000/svg"
   xmlns:sodipodi="http://sodipodi.sourceforge.net/DTD/sodipodi-0.dtd"
   xmlns:inkscape="http://www.inkscape.org/namespaces/inkscape"
   inkscape:version="1.0 (4035a4fb49, 2020-05-01)"
   sodipodi:docname="contacts.svg"
   id="svg6"
   version="1.1"
   width="24"
   viewBox="0 0 24 24"
   height="24">
  <metadata
     id="metadata12">
    <rdf:RDF>
      <cc:Work
         rdf:about="">
        <dc:format>image/svg+xml</dc:format>
        <dc:type
           rdf:resource="http://purl.org/dc/dcmitype/StillImage" />
        <dc:title></dc:title>
      </cc:Work>
    </rdf:RDF>
  </metadata>
  <defs
     id="defs10" />
  <sodipodi:namedview
     inkscape:current-layer="svg6"
     inkscape:window-maximized="0"
     inkscape:window-y="0"
     inkscape:window-x="0"
     inkscape:cy="12"
     inkscape:cx="12"
     inkscape:zoom="35.416667"
     showgrid="false"
     id="namedview8"
     inkscape:window-height="480"
     inkscape:window-width="745"
     inkscape:pageshadow="2"
     inkscape:pageopacity="0"
     guidetolerance="10"
     gridtolerance="10"
     objecttolerance="10"
     borderopacity="1"
     bordercolor="#666666"
     pagecolor="#131313" />
  <path
     id="path2"
     fill="none"
     d="M0 0h24v24H0V0z" />
  <path
     style="fill:#ffffff;stroke-width:1"
     id="path4"
     d="M 20,4 H 4 C 2.9,4 2,4.9 2,6 v 12 c 0,1.1 0.9,2 2,2 h 16 c 1.1,0 2,-0.9 2,-2 V 6 C 22,4.9 21.1,4 20,4 Z m 0,14 H 4 V 6 H 20 Z M 4,0 H 20 V 2 H 4 Z m 0,22 h 16 v 2 H 4 Z m 8,-10 c 1.38,0 2.5,-1.12 2.5,-2.5 C 14.5,8.12 13.38,7 12,7 10.62,7 9.5,8.12 9.5,9.5 9.5,10.88 10.62,12 12,12 Z m 0,-3.5 c 0.55,0 1,0.45 1,1 0,0.55 -0.45,1 -1,1 -0.55,0 -1,-0.45 -1,-1 0,-0.55 0.45,-1 1,-1 z m 5,7.49 C 17,13.9 13.69,13 12,13 10.31,13 7,13.9 7,15.99 V 17 H 17 Z M 8.81,15.5 c 0.61,-0.52 2.03,-1 3.19,-1 1.17,0 2.59,0.48 3.2,1 z" />
</svg>
