<?xml version="1.0" encoding="UTF-8" standalone="no"?>
<svg
   xmlns:dc="http://purl.org/dc/elements/1.1/"
   xmlns:cc="http://creativecommons.org/ns#"
   xmlns:rdf="http://www.w3.org/1999/02/22-rdf-syntax-ns#"
   xmlns:svg="http://www.w3.org/2000/svg"
   xmlns="http://www.w3.org/2000/svg"
   xmlns:sodipodi="http://sodipodi.sourceforge.net/DTD/sodipodi-0.dtd"
   xmlns:inkscape="http://www.inkscape.org/namespaces/inkscape"
   inkscape:export-ydpi="75.279999"
   inkscape:export-xdpi="75.279999"
   inkscape:export-filename="/home/mishapankin/work/Komvick/img/favicon.png"
   sodipodi:docname="favicon.svg"
   inkscape:version="1.0 (1.0+r73+1)"
   id="svg68"
   version="1.1"
   viewBox="0 0 16.195034 16.195034"
   height="16.195034mm"
   width="16.195034mm">
  <defs
     id="defs62" />
  <sodipodi:namedview
     inkscape:snap-object-midpoints="true"
     inkscape:window-maximized="1"
     inkscape:window-y="26"
     inkscape:window-x="72"
     inkscape:window-height="1017"
     inkscape:window-width="1848"
     fit-margin-bottom="0"
     fit-margin-right="0"
     fit-margin-left="0"
     fit-margin-top="0"
     inkscape:pagecheckerboard="false"
     showgrid="false"
     inkscape:document-rotation="0"
     inkscape:current-layer="layer1"
     inkscape:document-units="mm"
     inkscape:cy="33.754323"
     inkscape:cx="-8.8932539"
     inkscape:zoom="10.289123"
     inkscape:pageshadow="2"
     inkscape:pageopacity="0"
     borderopacity="1.0"
     bordercolor="#666666"
     pagecolor="#1d1d1d"
     id="base" />
  <metadata
     id="metadata65">
    <rdf:RDF>
      <cc:Work
         rdf:about="">
        <dc:format>image/svg+xml</dc:format>
        <dc:type
           rdf:resource="http://purl.org/dc/dcmitype/StillImage" />
        <dc:title></dc:title>
      </cc:Work>
    </rdf:RDF>
  </metadata>
  <g
     transform="translate(-41.039389,-59.938196)"
     id="layer1"
     inkscape:groupmode="layer"
     inkscape:label="Слой 1">
    <circle
       r="8.097517"
       cy="68.035713"
       cx="49.136906"
       id="path27"
       style="fill:#000080;stroke-width:0;paint-order:stroke fill markers" />
    <path
       style="display:inline;fill:#ffffff;fill-opacity:1;stroke-width:0;stroke-miterlimit:4;stroke-dasharray:none"
       d="m 48.514028,74.318172 c -0.09095,0.0341 0.243378,-0.252732 0.654321,-0.378014 1.761938,-0.537152 4.014114,-2.898861 4.565303,-4.787333 0.33871,-1.160484 0.399859,-3.627665 0.101359,-4.089561 -0.137503,-0.212769 -0.19575,0.06198 -0.197921,0.933576 -0.0044,1.72898 -0.655322,3.712765 -1.488278,4.535121 -1.074091,1.060423 -2.795639,2.326323 -3.756457,2.762223 -0.947429,0.429824 -2.291421,0.54344 -2.496835,0.211072 -0.07396,-0.119663 0.166143,-0.201 0.593327,-0.201 2.945081,0 6.491803,-5.090483 5.836201,-8.376492 -0.151791,-0.760806 -0.156058,-0.75395 -0.400556,0.643691 -0.448589,2.564297 -2.034015,5.320803 -3.060303,5.320803 -0.161489,0 -0.549745,0.18238 -0.862793,0.40529 -0.845938,0.602361 -2.237174,1.193281 -2.821209,1.198294 -0.282882,0.0024 -0.689907,-0.135523 -0.904499,-0.306557 -0.36852,-0.293717 -0.354475,-0.304103 0.253166,-0.187208 0.687705,0.132301 2.22689,-0.42615 2.941509,-1.067247 0.669642,-0.600743 1.866741,-2.519407 2.212199,-3.545625 0.348849,-1.036289 0.460237,-3.031023 0.158855,-2.844757 -0.09603,0.05935 -0.232732,0.471457 -0.303784,0.915796 -0.296108,1.85176 -1.802354,4.422553 -2.597093,4.432606 -0.243112,0.003 -0.797321,0.274425 -1.231576,0.603001 -0.999417,0.756196 -2.145681,0.82222 -2.616044,0.150684 -0.510346,-0.728622 -0.375584,-1.141612 0.155817,-0.477506 0.394581,0.493122 0.556815,0.560657 1.049668,0.436958 1.140598,-0.286273 2.850433,-2.606855 3.195354,-4.336725 0.07715,-0.386924 0.188434,-0.873114 0.247299,-1.08042 0.06911,-0.243374 0.02819,-0.328191 -0.115507,-0.239387 -0.122393,0.07565 -0.222533,0.276814 -0.222533,0.447045 0,0.435927 -0.578714,1.655455 -1.161594,2.447825 -0.363094,0.493594 -0.601994,0.642132 -0.905227,0.562836 -0.231444,-0.06053 -0.63952,0.05245 -0.931313,0.257816 -1.180399,0.8308 -2.044737,0.594053 -2.010992,-0.550824 l 0.01588,-0.538391 0.201881,0.552748 c 0.295111,0.808007 0.899031,0.70122 1.891365,-0.334436 0.615436,-0.642306 0.907147,-1.154788 1.056849,-1.856694 0.265892,-1.246686 0.124519,-1.41096 -0.178529,-0.207446 -0.275193,1.092891 -0.800818,1.624054 -1.664689,1.682226 -0.896964,0.06039 -1.38519,-0.154537 -0.737874,-0.324845 0.594085,-0.156301 1.409257,-1.286157 1.409257,-1.953276 0,-0.62063 -0.349708,-0.598083 -1.044249,0.06734 -0.76686,0.734699 -0.7116,0.289033 0.09618,-0.77573 0.893544,-1.177798 1.783197,-1.949983 3.405001,-2.388985 1.17501,-0.31806 1.994417,-0.420487 4.159272,-0.04925 2.164855,0.371232 4.370922,2.398981 4.801205,5.144943 0.198088,1.264144 -0.0052,2.874785 -0.478331,3.789709 -0.459512,0.888597 -0.700148,0.858915 -0.380544,-0.04695 0.162498,-0.460567 0.289329,-1.119985 0.281847,-1.465373 -0.01353,-0.624722 -0.01469,-0.625373 -0.221323,-0.125478 -0.652891,1.579423 -0.808754,1.834119 -1.221247,1.995643 -0.249329,0.09763 -0.815124,0.555254 -1.257324,1.016938 -0.442199,0.461682 -1.190992,1.068228 -1.663985,1.347879 -0.932095,0.551092 -2.084892,0.57385 -2.350499,0.673453 z"
       id="path83"
       sodipodi:nodetypes="sssscsssssssscsssssccsssscscssssccsssscsscsszscsscsssss" />
  </g>
</svg>
