<?xml version="1.0" encoding="UTF-8" standalone="no"?>
<svg
   xmlns:dc="http://purl.org/dc/elements/1.1/"
   xmlns:cc="http://creativecommons.org/ns#"
   xmlns:rdf="http://www.w3.org/1999/02/22-rdf-syntax-ns#"
   xmlns:svg="http://www.w3.org/2000/svg"
   xmlns="http://www.w3.org/2000/svg"
   xmlns:sodipodi="http://sodipodi.sourceforge.net/DTD/sodipodi-0.dtd"
   xmlns:inkscape="http://www.inkscape.org/namespaces/inkscape"
   sodipodi:docname="favicon.svg"
   inkscape:version="1.0 (4035a4fb49, 2020-05-01)"
   id="svg68"
   version="1.1"
   viewBox="0 0 17.740749 16.534048"
   height="16.534048mm"
   width="17.740749mm">
  <defs
     id="defs62" />
  <sodipodi:namedview
     inkscape:window-maximized="0"
     inkscape:window-y="0"
     inkscape:window-x="208"
     inkscape:window-height="1040"
     inkscape:window-width="1513"
     fit-margin-bottom="0"
     fit-margin-right="0"
     fit-margin-left="0"
     fit-margin-top="0"
     inkscape:pagecheckerboard="false"
     showgrid="false"
     inkscape:document-rotation="0"
     inkscape:current-layer="layer1"
     inkscape:document-units="mm"
     inkscape:cy="66.304226"
     inkscape:cx="14.870566"
     inkscape:zoom="5.6"
     inkscape:pageshadow="2"
     inkscape:pageopacity="0"
     borderopacity="1.0"
     bordercolor="#666666"
     pagecolor="#1d1d1d"
     id="base" />
  <metadata
     id="metadata65">
    <rdf:RDF>
      <cc:Work
         rdf:about="">
        <dc:format>image/svg+xml</dc:format>
        <dc:type
           rdf:resource="http://purl.org/dc/dcmitype/StillImage" />
        <dc:title></dc:title>
      </cc:Work>
    </rdf:RDF>
  </metadata>
  <g
     transform="translate(-40.26653,-59.76869)"
     id="layer1"
     inkscape:groupmode="layer"
     inkscape:label="Слой 1">
    <path
       style="display:inline;fill:#ffffff;fill-opacity:1;stroke-width:0;stroke-miterlimit:4;stroke-dasharray:none"
       d="m 48.317632,76.299062 c -0.119627,0.04486 0.320116,-0.33242 0.860631,-0.497203 2.317486,-0.706519 5.279785,-3.812887 6.004767,-6.296804 0.445507,-1.52639 0.525936,-4.771485 0.133317,-5.379019 -0.180857,-0.279856 -0.257471,0.08152 -0.260327,1.227938 -0.0058,2.274135 -0.861948,4.883417 -1.957539,5.965065 -1.412756,1.39478 -3.677117,3.059825 -4.940887,3.633166 -1.246157,0.56535 -3.013916,0.714789 -3.284098,0.277624 -0.09728,-0.157393 0.218528,-0.264376 0.780405,-0.264376 3.873681,0 8.5387,-6.695538 7.676384,-11.017641 -0.199651,-1.000692 -0.205264,-0.991675 -0.526853,0.84665 -0.590031,3.372833 -2.67535,6.998478 -4.025232,6.998478 -0.212407,0 -0.723082,0.239886 -1.134836,0.533081 -1.112666,0.792288 -2.942565,1.569528 -3.710749,1.576122 -0.372077,0.0032 -0.907439,-0.178254 -1.189692,-0.403216 -0.484717,-0.386328 -0.466243,-0.399989 0.332989,-0.246235 0.904543,0.174015 2.92904,-0.560519 3.868983,-1.403756 0.880782,-0.790161 2.455332,-3.31379 2.909716,-4.663578 0.458842,-1.363036 0.605352,-3.986719 0.208942,-3.741724 -0.126306,0.07806 -0.306113,0.62011 -0.399569,1.204551 -0.389472,2.435629 -2.370644,5.817006 -3.415969,5.83023 -0.319766,0.004 -1.04872,0.360952 -1.619898,0.793129 -1.314537,0.994628 -2.822224,1.081471 -3.440895,0.198195 -0.671262,-0.95836 -0.494007,-1.501567 0.204946,-0.628066 0.518995,0.648607 0.732382,0.737436 1.380634,0.574734 1.500235,-0.376536 3.749189,-3.428809 4.202864,-5.704116 0.101481,-0.508923 0.247849,-1.148411 0.325274,-1.421081 0.0909,-0.320112 0.03707,-0.431672 -0.151926,-0.314868 -0.160984,0.0995 -0.292699,0.364095 -0.292699,0.588 0,0.573378 -0.761186,2.177429 -1.52785,3.219637 -0.477579,0.649227 -0.791807,0.8446 -1.19065,0.740301 -0.30442,-0.07961 -0.841164,0.06898 -1.22496,0.339107 -1.552586,1.092755 -2.689453,0.78136 -2.645069,-0.724502 l 0.02088,-0.708148 0.265536,0.727032 c 0.38816,1.062775 1.182499,0.922318 2.487721,-0.439886 0.809486,-0.844828 1.193176,-1.518898 1.390078,-2.442118 0.34973,-1.639772 0.163781,-1.855842 -0.234819,-0.272855 -0.361963,1.437486 -1.05332,2.136126 -2.189575,2.21264 -1.179781,0.07944 -1.821946,-0.203264 -0.970528,-0.42727 0.781403,-0.205583 1.853603,-1.691689 1.853603,-2.569153 0,-0.816318 -0.459974,-0.786662 -1.373507,0.08857 -1.008654,0.966353 -0.93597,0.380166 0.126514,-1.020322 1.175282,-1.549163 2.345447,-2.564823 4.478614,-3.142244 1.545496,-0.418346 2.623267,-0.553069 5.470711,-0.06479 2.847444,0.488283 5.749095,3.155391 6.315049,6.767169 0.260545,1.662735 -0.0068,3.781218 -0.629151,4.984623 -0.604398,1.168776 -0.920908,1.129734 -0.500531,-0.06175 0.213734,-0.605786 0.380554,-1.473122 0.370714,-1.927412 -0.0178,-0.821701 -0.01932,-0.822556 -0.291108,-0.165043 -0.858751,2.077423 -1.063757,2.412427 -1.606312,2.62488 -0.327943,0.128416 -1.072137,0.730328 -1.653764,1.337583 -0.581627,0.607254 -1.566518,1.405047 -2.188647,1.772873 -1.225991,0.724854 -2.742269,0.754787 -3.091624,0.885795 z"
       id="path83"
       sodipodi:nodetypes="sssscsssssssscsssssccsssscscssssccsssscsscsszscsscsssss" />
  </g>
</svg>
